<svg width="64" height="64" viewBox="0 0 64 64" fill="none" xmlns="http://www.w3.org/2000/svg">
<path d="M11.1377 47.9216L28.2688 22.7288C28.7927 21.9583 29.9927 22.2598 30.0902 23.1864L31.7443 38.9002C31.8381 39.7907 32.9651 40.1186 33.5219 39.4174L45.1686 24.7512C45.7429 24.0281 46.9067 24.4031 46.9506 25.3255L47.373 34.1961C47.373 37.4902 50.0004 41 53.9612 40.7843C56.6627 40.6372 59.5004 39.5 60.0004 33.5" stroke="white" stroke-width="2" stroke-linecap="round"/>
<path d="M52.0755 51.5186C46.9882 56.7501 39.8736 60 32 60C16.536 60 4 47.464 4 32C4 16.536 16.536 4 32 4C47.464 4 60 16.536 60 32C60 33.1144 59.9349 34.2137 59.8083 35.2941" stroke="white" stroke-width="2" stroke-linecap="round"/>
</svg>
