<svg width="64" height="64" viewBox="0 0 64 64" fill="none" xmlns="http://www.w3.org/2000/svg">
<path d="M10.1729 47.7422C11.897 43.617 12.9631 38.7543 13.3407 34.3583C13.4832 32.6911 13.6186 31.024 13.8608 29.371C14.3524 26.0652 15.9412 23.4219 18.7697 21.5695C20.8929 20.1802 23.2227 19.2896 25.6807 18.7125C26.4003 18.5415 27.1626 18.513 27.9036 18.4774C29.2074 18.4133 30.4827 18.6484 31.758 18.8906C32.0145 18.9405 32.3066 18.9334 32.556 18.8693C33.5677 18.6199 34.5865 18.4845 35.6267 18.6056C37.3936 18.8123 38.7901 19.5675 39.5382 21.2774C39.5952 21.4128 39.7377 21.5624 39.873 21.6123C41.7824 22.3105 43.6776 23.0372 45.6084 23.657C47.5392 24.2769 49.4344 24.9252 51.0873 26.1578C53.2033 27.7466 53.8374 30.0123 52.7901 32.4418C52.2842 33.6245 51.5646 34.6718 50.674 35.5909C48.9997 37.3008 47.2756 38.9751 45.587 40.6779C44.0053 42.2596 42.5662 43.9695 41.2623 45.7863C40.3718 47.026 39.5239 48.2942 38.8328 49.6693C38.1987 50.9375 37.6288 52.2199 37.244 53.5878C36.7952 55.1909 36.6028 56.8153 36.7524 58.4825C36.7524 58.4825 27.9036 59.9269 20.8345 56.373C13.7654 52.8191 10.1729 47.7422 10.1729 47.7422Z" stroke="white" stroke-width="2" stroke-miterlimit="10"/>
<path d="M28.3526 21.5125C31.1313 21.4912 33.4397 23.7711 33.461 26.5711C33.4824 29.4067 31.2096 31.7079 28.374 31.7222C25.6168 31.7364 23.287 29.4637 23.2727 26.7349C23.2442 23.8209 25.4743 21.541 28.3526 21.5125ZM28.3384 30.2616C30.3689 30.2616 31.9648 28.6871 31.972 26.6708C31.972 24.6616 30.3689 23.0443 28.3669 23.0443C26.3648 23.0443 24.7475 24.6616 24.7475 26.6637C24.7475 28.6657 26.3435 30.2616 28.3384 30.2616Z" fill="white"/>
<path d="M47.7035 31.7009C47.7107 32.3279 47.2333 32.8052 46.6063 32.8052C45.9865 32.8052 45.4949 32.3136 45.502 31.6938C45.5092 31.0882 45.9865 30.6108 46.5921 30.6037C47.2191 30.6037 47.6964 31.0739 47.7035 31.7009Z" fill="white"/>
<path d="M30.96 39.1033C30.96 39.1033 36.9447 44.9954 50.2892 35.9685" stroke="white" stroke-width="2" stroke-miterlimit="10" stroke-linecap="round"/>
<path d="M59 32C59 46.9117 46.9117 59 32 59C17.0883 59 5 46.9117 5 32C5 17.0883 17.0883 5 32 5C46.9117 5 59 17.0883 59 32Z" stroke="white" stroke-width="2" stroke-miterlimit="10"/>
</svg>
