<svg width="64" height="64" viewBox="0 0 64 64" fill="none" xmlns="http://www.w3.org/2000/svg">
<path d="M64 0H0V64H64V0Z" fill="white" fill-opacity="0.01"/>
<path d="M59 32C59 46.9117 46.9117 59 32 59C17.0883 59 5 46.9117 5 32C5 17.0883 17.0883 5 32 5C46.9117 5 59 17.0883 59 32Z" stroke="white" stroke-width="2"/>
<path d="M32.0444 42.7863C37.0245 42.7863 41.2117 39.4128 42.4536 34.8262H50.4031C49.0425 43.7419 41.3407 50.5727 32.0444 50.5727C21.7876 50.5727 13.4717 42.2586 13.4717 32C13.4717 21.7432 21.7858 13.4273 32.0444 13.4273C41.3407 13.4273 49.0425 20.258 50.4031 29.1738H42.4535C41.2116 24.5889 37.0246 21.2136 32.0444 21.2136C26.0866 21.2136 21.258 26.0422 21.258 32C21.258 37.9577 26.0866 42.7863 32.0444 42.7863Z" stroke="white" stroke-width="2"/>
</svg>
