<svg width="64" height="64" viewBox="0 0 64 64" fill="none" xmlns="http://www.w3.org/2000/svg">
<path d="M64 0H0V64H64V0Z" fill="white" fill-opacity="0.01"/>
<path d="M39.1262 40.635C42.3311 39.9689 45.2393 38.814 47.4999 37.1185C51.3606 34.223 53.3337 29.751 53.3337 25.3328C53.3337 22.2333 52.1586 19.3396 50.1242 16.8886C48.9906 15.5229 52.3063 5.33278 49.3603 6.70518C46.4143 8.07758 42.0947 11.1153 39.8305 10.4449C37.4063 9.72712 34.7647 9.33278 32.0003 9.33278C29.5993 9.33278 27.2909 9.63027 25.1371 10.1788C22.0065 10.9761 19.0125 7.99944 16.0003 6.70518C12.9881 5.41091 14.6318 15.9505 13.7371 17.0589C11.7886 19.473 10.667 22.3046 10.667 25.3328C10.667 29.751 13.0548 34.223 16.9154 37.1185C19.4871 39.0472 22.7123 40.2764 26.3205 40.8822" stroke="white" stroke-width="2" stroke-linecap="round"/>
<path d="M26.32 40.8828C24.7753 42.5831 24.0029 44.1975 24.0029 45.7263C24.0029 47.2549 24.0029 51.1288 24.0029 57.3479" stroke="white" stroke-width="2" stroke-linecap="round"/>
<path d="M39.126 40.6367C40.5897 42.5578 41.3216 44.2827 41.3216 45.8114C41.3216 47.3402 41.3216 51.1859 41.3216 57.3489" stroke="white" stroke-width="2" stroke-linecap="round"/>
<path d="M8 41.6201C9.19849 41.7667 10.0874 42.3177 10.6667 43.2733C11.5356 44.7065 14.7656 50.0235 18.4335 50.0235C20.8788 50.0235 22.7353 50.0235 24.0032 50.0235" stroke="white" stroke-width="2" stroke-linecap="round"/>
</svg>
