<svg width="64" height="64" viewBox="0 0 64 64" fill="none" xmlns="http://www.w3.org/2000/svg">
<path d="M40 48.0013L46.6667 41.3346L40.0005 34.668" stroke="white" stroke-width="2" stroke-linejoin="round"/>
<path d="M50.667 48.0013L57.3337 41.3346L50.6675 34.668" stroke="white" stroke-width="2" stroke-linejoin="round"/>
<path d="M57.3337 29.332V11.9987C57.3337 10.5259 56.1398 9.33203 54.667 9.33203H9.33366C7.8609 9.33203 6.66699 10.5259 6.66699 11.9987V51.9987C6.66699 53.4715 7.8609 54.6654 9.33366 54.6654H37.9611" stroke="white" stroke-width="2" stroke-linejoin="round"/>
<path d="M23 20V42" stroke="white" stroke-width="2" stroke-linecap="round" stroke-linejoin="round"/>
<path d="M28.5 22C28.5 22 23.4853 22 21 22C18.5147 22 16.5 24.0147 16.5 26.5C16.5 28.9853 18.5147 31 21 31" stroke="white" stroke-width="2" stroke-linecap="round" stroke-linejoin="round"/>
<path d="M17.5 40C17.5 40 22.5147 40 25 40C27.4853 40 29.5 37.9853 29.5 35.5C29.5 33.0147 27.4853 31 25 31H21" stroke="white" stroke-width="2" stroke-linecap="round" stroke-linejoin="round"/>
</svg>
