<svg width="120" height="34" viewBox="0 0 120 34" fill="none" xmlns="http://www.w3.org/2000/svg">
<path d="M26.8383 18.8861C26.8383 18.8399 26.8453 18.7949 26.85 18.7487C25.6386 17.7964 24.1242 17.3295 22.5954 17.437C21.0665 17.5446 19.6301 18.219 18.5599 19.3319C17.4896 20.4447 16.8602 21.9182 16.7917 23.4715C16.7231 25.0248 17.2202 26.5494 18.1882 27.7548C22.8441 26.3341 26.4019 22.9007 26.8383 18.8861Z" fill="white"/>
<path fill-rule="evenodd" clip-rule="evenodd" d="M11.4563 19.9281C11.4546 21.2709 11.7156 22.6007 12.2242 23.8404C12.7328 25.0801 13.4788 26.205 14.419 27.15C15.0726 27.3 15.7397 27.3813 16.4097 27.3927C15.3172 25.9325 14.7883 24.1175 14.9224 22.2893C15.0565 20.4611 15.8444 18.7455 17.1379 17.4655C18.4314 16.1854 20.1413 15.4289 21.946 15.3385C23.7507 15.248 25.5258 15.8297 26.9374 16.9742C26.9175 14.3802 26.2536 12.4753 25.6328 11.2463C25.4823 10.9504 25.3294 10.684 25.1789 10.4425C23.6555 9.83882 22.0101 9.621 20.3851 9.80787C18.7602 9.99474 17.2045 10.5807 15.853 11.5149C14.5014 12.4491 13.3947 13.7036 12.6286 15.1695C11.8625 16.6355 11.4601 18.2688 11.4563 19.9281Z" fill="white"/>
<path fill-rule="evenodd" clip-rule="evenodd" d="M5.26853 8.6451C3.05406 10.1166 1.36931 12.2767 0.466797 14.8015C0.264036 15.3974 0.107967 16.0087 4.27964e-05 16.6295C4.27964e-05 16.7479 4.27964e-05 16.8663 4.27964e-05 16.9847C-0.00733586 20.2858 0.93957 23.5167 2.72355 26.2773C3.8741 26.9569 7.1017 28.4356 13.4589 28.4558C15.146 28.4617 16.8237 28.2017 18.4322 27.685C17.8611 27.7744 17.2841 27.8184 16.7063 27.8164C14.0062 27.8097 11.4087 26.7661 9.43603 24.8955C7.46333 23.0249 6.26167 20.466 6.07263 17.7332C5.88358 15.0003 6.72116 12.2962 8.417 10.1644C10.1128 8.03256 12.5412 6.6311 15.2139 6.24172C15.0272 6.24172 14.8323 6.23462 14.6304 6.23462C12.0015 6.23462 8.25108 6.65373 5.26853 8.6451Z" fill="white"/>
<path fill-rule="evenodd" clip-rule="evenodd" d="M6.92117 3.20642C1.12759 7.54669 0.195245 13.3728 0.0482178 15.3855C0.217271 14.8299 0.422711 14.2865 0.663166 13.7588C1.0259 12.9168 1.49207 12.1248 2.05059 11.4016C2.91027 10.2488 3.95952 9.25509 5.15217 8.46424C5.59872 8.16803 6.06416 7.90224 6.54543 7.66864C8.98655 6.41249 11.6797 6.0656 13.9435 6.03245C15.0575 5.99941 16.1725 6.04292 17.2808 6.16268C18.0976 6.22898 18.6997 6.28699 18.9646 6.24792C20.5912 6.01114 21.9401 4.89588 21.9401 3.22891C21.9401 1.63416 20.485 0.387485 19.163 0.161354C18.4159 0.0489974 17.6614 -0.00483316 16.9062 0.000340238C14.4336 0.000340238 10.5035 0.522452 6.92117 3.20642Z" fill="white"/>
<path fill-rule="evenodd" clip-rule="evenodd" d="M27.6657 18.9789C27.3635 21.7576 25.7322 24.3563 23.0728 26.2968C20.4135 28.2372 17.0295 29.2933 13.5044 29.2933H13.4472C8.62563 29.2779 5.54272 28.4539 3.74805 27.7175C7.13201 32.1241 13.9081 35.1407 20.1871 33.5862C31.87 30.6927 33.2154 19.4537 29.989 14.4765C29.0879 13.0937 27.8914 11.9348 26.4883 11.0857C27.3436 12.8568 28.0461 15.4579 27.6657 18.9789Z" fill="white"/>
<path d="M116.918 22.2186C117.153 22.8584 117.561 23.0662 118.559 23.0662H118.611C118.795 23.076 118.98 23.0469 119.153 22.9809C119.326 22.9148 119.483 22.8134 119.614 22.683C119.744 22.5527 119.846 22.3963 119.913 22.2242C119.979 22.0521 120.008 21.868 119.998 21.6839V18.2959C119.998 15.2208 118.508 14.079 116.182 14.079C113.546 14.079 112.538 14.7795 112.538 15.7392C112.538 16.5004 113.058 17.0864 113.787 17.0864C114.378 17.0864 114.689 16.7759 115.489 16.7759C115.99 16.7759 116.443 16.8109 116.546 17.3806C113.128 17.6748 111.949 18.7279 111.949 20.4744C111.949 21.8567 112.887 23.204 114.586 23.204C115.489 23.204 116.199 22.8257 116.857 22.2186H116.918ZM116.52 20.2316C116.42 20.3546 116.292 20.4529 116.147 20.5189C116.003 20.585 115.845 20.6169 115.686 20.6122C115.618 20.6196 115.55 20.6126 115.486 20.5914C115.422 20.5702 115.363 20.5355 115.314 20.4896C115.264 20.4437 115.226 20.3877 115.2 20.3254C115.174 20.2632 115.162 20.1961 115.165 20.1289C115.165 19.7646 115.46 19.4541 116.52 19.2999V20.2316ZM108.823 14.079C106.272 14.079 104.001 15.7392 104.001 18.6415C104.001 21.5438 105.961 23.204 108.494 23.204C110.316 23.204 111.321 22.5035 111.321 21.6489C111.321 20.8363 110.836 20.1989 110.107 20.1989C109.709 20.1989 109.465 20.4324 108.909 20.4324C108.164 20.4324 107.541 19.7319 107.541 18.6345C107.541 17.5371 108.061 16.8389 109.031 16.8389C109.516 16.8389 109.709 17.0444 110.072 17.0444C110.801 17.0444 111.286 16.407 111.286 15.5944C111.288 14.7375 110.386 14.079 108.823 14.079ZM100.071 22.2186C100.305 22.8584 100.713 23.0662 101.711 23.0662H101.763C101.948 23.076 102.132 23.0469 102.305 22.9809C102.478 22.9148 102.635 22.8134 102.766 22.683C102.897 22.5527 102.998 22.3963 103.065 22.2242C103.131 22.0521 103.16 21.868 103.15 21.6839V18.2959C103.15 15.2208 101.66 14.079 99.3346 14.079C96.6977 14.079 95.6922 14.7795 95.6922 15.7392C95.6922 16.5004 96.2125 17.0864 96.9415 17.0864C97.5298 17.0864 97.8439 16.7759 98.6408 16.7759C99.1447 16.7759 99.5947 16.8109 99.7002 17.3806C96.2805 17.6748 95.1015 18.7279 95.1015 20.4744C95.1015 21.8567 96.0391 23.204 97.7384 23.204C98.6408 23.204 99.3533 22.8257 100.012 22.2186H100.071ZM99.6721 20.2316C99.5724 20.3548 99.4454 20.4534 99.301 20.5194C99.1566 20.5855 98.9988 20.6172 98.84 20.6122C98.7729 20.6196 98.7049 20.6126 98.6407 20.5914C98.5766 20.5702 98.5178 20.5355 98.4684 20.4896C98.4189 20.4437 98.3801 20.3877 98.3544 20.3254C98.3287 20.2632 98.3169 20.1961 98.3197 20.1289C98.3197 19.7646 98.615 19.4541 99.6721 19.2999V20.2316ZM90.9388 23.204C93.0717 23.204 94.4944 22.27 94.4944 21.1305C94.5017 20.9334 94.468 20.7369 94.3955 20.5533C94.323 20.3697 94.2132 20.203 94.0731 20.0636C93.9329 19.9242 93.7654 19.8151 93.581 19.7432C93.3966 19.6712 93.1993 19.638 93.0014 19.6455C92.2748 19.6455 92.1881 20.2316 91.0583 20.2316C89.8278 20.2316 88.9769 19.2649 88.9769 17.2942C88.9769 15.6014 90.0364 14.5647 91.0864 14.5647C91.9537 14.5647 92.2326 15.013 92.9944 15.013C93.7936 15.013 94.3843 14.4246 94.3843 13.493C94.3843 12.3862 92.9615 11.5923 90.9997 11.5923C88.173 11.5923 85.4306 13.6938 85.4306 17.4297C85.44 21.3897 88.0441 23.204 90.9411 23.204H90.9388ZM77.5013 20.4394C76.8778 20.4394 76.634 19.886 76.634 18.6415C76.634 17.397 76.8684 16.8459 77.5013 16.8459C78.1341 16.8459 78.3685 17.3643 78.3685 18.6415C78.3685 19.9187 78.1294 20.4394 77.5036 20.4394H77.5013ZM77.5013 23.204C79.8264 23.204 81.9078 21.5812 81.9078 18.6415C81.9078 15.7018 79.8288 14.079 77.5036 14.079C75.1785 14.079 73.0971 15.7135 73.0971 18.6415C73.0971 21.5695 75.1808 23.204 77.5036 23.204H77.5013ZM70.4696 13.4229C71.5291 13.4229 72.2744 12.7224 72.2744 11.7628C72.2744 10.8031 71.5291 10.0886 70.4696 10.0886C69.4102 10.0886 68.6648 10.7891 68.6648 11.7628C68.6648 12.7364 69.4125 13.4229 70.4696 13.4229ZM68.7422 21.6839C68.7313 21.8683 68.7597 22.0529 68.8256 22.2255C68.8914 22.3981 68.9933 22.5549 69.1244 22.6855C69.2555 22.8161 69.4128 22.9175 69.5861 22.9832C69.7594 23.0488 69.9447 23.0771 70.1298 23.0662H70.8329C71.0181 23.0775 71.2035 23.0494 71.377 22.9839C71.5505 22.9184 71.708 22.817 71.8392 22.6863C71.9704 22.5557 72.0722 22.3987 72.1379 22.2259C72.2037 22.0531 72.2318 21.8684 72.2205 21.6839V15.6014C72.2322 15.4169 72.2043 15.232 72.1387 15.059C72.0731 14.886 71.9713 14.7289 71.84 14.5982C71.7088 14.4674 71.5511 14.366 71.3774 14.3006C71.2038 14.2353 71.0182 14.2075 70.8329 14.2191H70.1298C69.9446 14.2079 69.7592 14.2359 69.5857 14.3014C69.4122 14.3669 69.2547 14.4683 69.1235 14.599C68.9923 14.7297 68.8905 14.8866 68.8248 15.0594C68.7591 15.2322 68.7309 15.417 68.7422 15.6014V21.6839ZM62.2637 23.204C62.6501 23.1923 63.0302 23.1036 63.3817 22.9432C63.7331 22.7828 64.0487 22.5539 64.3099 22.27H64.3802C64.5888 22.8911 65.0037 23.0639 66.0092 23.0639H66.0795C66.2643 23.0736 66.4491 23.0445 66.6219 22.9785C66.7947 22.9125 66.9516 22.811 67.0825 22.6807C67.2133 22.5503 67.3152 22.394 67.3815 22.2219C67.4477 22.0498 67.4769 21.8657 67.4671 21.6816V12.3862C67.4769 12.2021 67.4477 12.018 67.3815 11.8459C67.3152 11.6738 67.2133 11.5175 67.0825 11.3871C66.9516 11.2567 66.7947 11.1553 66.6219 11.0893C66.4491 11.0232 66.2643 10.9942 66.0795 11.0039H65.3764C65.1925 10.9947 65.0087 11.0243 64.837 11.0907C64.6653 11.1571 64.5097 11.2589 64.3803 11.3894C64.2508 11.5199 64.1505 11.6761 64.0859 11.8479C64.0212 12.0197 63.9937 12.2031 64.0052 12.3862V13.7008L64.1435 14.943C63.6794 14.3919 63.1169 14.079 62.1793 14.079C60.3417 14.079 58.6752 15.7742 58.6752 18.6415C58.6822 21.4411 60.105 23.204 62.2567 23.204H62.2637ZM63.1661 20.402C62.6106 20.402 62.2285 20.0214 62.2285 18.6065C62.2285 17.1915 62.7489 16.8763 63.2341 16.8763C63.5141 16.8738 63.7856 16.9725 63.9982 17.1541V19.9164C63.9194 20.0688 63.7986 20.1957 63.65 20.2821C63.5013 20.3685 63.331 20.411 63.1591 20.4044L63.1661 20.402ZM54.6789 22.2186C54.9133 22.8584 55.3211 23.0662 56.3196 23.0662H56.3712C56.556 23.076 56.7408 23.0469 56.9135 22.9809C57.0863 22.9148 57.2432 22.8134 57.3741 22.683C57.505 22.5527 57.6068 22.3963 57.6731 22.2242C57.7394 22.0521 57.7685 21.868 57.7588 21.6839V18.2959C57.7588 15.2208 56.268 14.079 53.9429 14.079C51.306 14.079 50.3005 14.7795 50.3005 15.7392C50.3005 16.5004 50.8209 17.0864 51.5475 17.0864C52.1381 17.0864 52.4499 16.7759 53.2491 16.7759C53.7507 16.7759 54.2031 16.8109 54.3062 17.3806C50.8888 17.6748 49.7099 18.7279 49.7099 20.4744C49.7099 21.8567 50.6474 23.204 52.3467 23.204C53.2491 23.204 53.9593 22.8257 54.6203 22.2186H54.6789ZM54.2804 20.2316C54.1804 20.3544 54.0533 20.4527 53.909 20.5187C53.7647 20.5847 53.6071 20.6167 53.4483 20.6122C53.3812 20.6196 53.3132 20.6126 53.2491 20.5914C53.1849 20.5702 53.1261 20.5355 53.0767 20.4896C53.0273 20.4437 52.9884 20.3877 52.9627 20.3254C52.9371 20.2632 52.9252 20.1961 52.928 20.1289C52.928 19.7646 53.221 19.4541 54.2804 19.2999V20.2316ZM46.9675 18.7279C47.9566 18.1231 48.6082 17.0934 48.6082 15.5664C48.6082 12.629 46.3886 11.7978 43.9416 11.7978H40.85C40.6651 11.7881 40.4802 11.8171 40.3073 11.8831C40.1344 11.9491 39.9773 12.0506 39.8463 12.1809C39.7153 12.3112 39.6132 12.4675 39.5466 12.6396C39.4801 12.8117 39.4506 12.9959 39.46 13.1801V21.6839C39.4491 21.8685 39.4776 22.0533 39.5436 22.2261C39.6096 22.3989 39.7116 22.5558 39.843 22.6864C39.9743 22.817 40.132 22.9184 40.3056 22.9839C40.4792 23.0494 40.6647 23.0774 40.85 23.0662H41.5531C41.7382 23.0771 41.9235 23.0488 42.0968 22.9832C42.2701 22.9175 42.4275 22.8161 42.5585 22.6855C42.6896 22.5549 42.7915 22.3981 42.8573 22.2255C42.9232 22.0529 42.9516 21.8683 42.9407 21.6839V19.4727H43.7564L44.8838 21.8217C45.3174 22.7043 45.8893 23.0662 46.8784 23.0662H47.9707C48.1091 23.0573 48.2433 23.0146 48.3612 22.9417C48.4791 22.8689 48.5772 22.7682 48.6467 22.6486C48.7162 22.529 48.7551 22.3942 48.7598 22.2561C48.7646 22.1179 48.735 21.9808 48.6739 21.8567L46.9675 18.7279ZM42.9267 14.525H43.7423C44.7314 14.525 45.2518 14.8005 45.2518 15.6645C45.2518 16.5284 44.7314 16.9954 43.7423 16.9954H42.9313L42.9267 14.525Z" fill="white"/>
</svg>
