<svg width="32" height="32" viewBox="0 0 32 32" fill="none" xmlns="http://www.w3.org/2000/svg">
<circle cx="16" cy="16" r="15.5" stroke="white"/>
<path d="M14.7948 10.9696L20.6212 10.9696C21.0763 10.9696 21.4451 11.3384 21.4451 11.7934L21.4451 17.6198C21.4451 18.0749 21.0763 18.4437 20.6212 18.4437C20.1662 18.4437 19.7974 18.0749 19.7974 17.6198L19.7974 13.7825L12.0909 21.489C11.769 21.8109 11.2475 21.8109 10.9256 21.489C10.6037 21.1671 10.6037 20.6457 10.9256 20.3237L18.6321 12.6173L14.7948 12.6173C14.5676 12.6173 14.3613 12.5252 14.2122 12.376C14.063 12.2269 13.9707 12.0209 13.9709 11.7934C13.9709 11.3383 14.3398 10.9696 14.7948 10.9696Z" fill="white"/>
</svg>
