<svg width="64" height="64" viewBox="0 0 64 64" fill="none" xmlns="http://www.w3.org/2000/svg">
<path fill-rule="evenodd" clip-rule="evenodd" d="M14.0694 12.75C13.1861 8.2 16.7192 4 21.3123 4C25.3754 4 28.7319 7.325 28.7319 11.35V20.45C29.7918 20.45 30.8517 20.275 31.9117 20.275C32.9716 20.275 33.8549 20.275 34.9148 20.45V11.35C34.9148 7.325 38.2713 4 42.3344 4C46.9274 4 50.4606 8.2 49.7539 12.75L47.8107 23.425C54.7003 26.4 60 31.65 60 38.125V42.15C60 47.575 56.4669 52.125 51.3438 55.1C46.2208 58.25 39.5079 60 31.9117 60C24.3155 60 17.6025 58.25 12.4795 55.1C7.53312 52.125 4 47.575 4 42.15V38.125C4 31.65 9.12303 26.4 16.0126 23.425L14.0694 12.75ZM45.1609 24.825L47.4574 12.225C47.9874 9.075 45.6909 6.1 42.3344 6.1C39.5079 6.1 37.2114 8.375 37.2114 11.175V22.725C36.5047 22.55 35.6215 22.55 34.9148 22.55C33.8549 22.55 32.9716 22.375 31.9117 22.375C30.8517 22.375 29.7918 22.375 28.7319 22.55C28.0252 22.55 27.142 22.725 26.4353 22.725V11.35C26.4353 8.55 24.1388 6.275 21.3123 6.275C18.1325 6.275 15.6593 9.25 16.3659 12.4L18.6625 25C11.2429 27.8 6.29653 32.7 6.29653 38.3V42.325C6.29653 50.9 17.7792 57.9 31.9117 57.9C46.0442 57.9 57.5268 50.9 57.5268 42.325V38.3C57.7035 32.525 52.7571 27.625 45.1609 24.825Z" fill="white"/>
<path d="M24.8454 37.075C24.8454 39.35 23.6088 41.275 22.0189 41.275C20.429 41.275 19.1924 39.35 19.1924 37.075C19.1924 34.8 20.429 32.875 22.0189 32.875C23.6088 32.875 24.8454 34.8 24.8454 37.075Z" fill="white"/>
<path d="M44.4538 37.075C44.4538 39.35 43.2172 41.275 41.6273 41.275C40.0374 41.275 38.8008 39.35 38.8008 37.075C38.8008 34.8 40.0374 32.875 41.6273 32.875C43.2172 32.875 44.4538 34.8 44.4538 37.075Z" fill="white"/>
<path d="M5.52708 35.9298C5.18769 41.9883 10.0071 54.1053 31.9998 54.1053C53.9925 54.1053 58.8119 41.9883 58.4725 35.9298" stroke="white" stroke-width="2"/>
</svg>
