<svg width="24" height="24" viewBox="0 0 24 24" fill="none" xmlns="http://www.w3.org/2000/svg">
<g opacity="0.6">
<path d="M21.0002 7.79971V7.19971C21.9002 6.49971 22.7002 5.69971 23.3002 4.69971C22.5002 5.09971 21.6002 5.29971 20.6002 5.39971C21.6002 4.79971 22.3002 3.89971 22.6002 2.69971C21.7002 3.19971 20.7002 3.59971 19.7002 3.79971C18.9002 2.79971 17.7002 2.19971 16.3002 2.19971C13.7002 2.19971 11.7002 4.29971 11.7002 6.99971C11.7002 7.39971 11.7002 7.79971 11.8002 8.09971C8.0002 7.99971 4.60019 5.99971 2.3002 2.99971C1.9002 3.69971 1.7002 4.59971 1.7002 5.49971C1.7002 7.19971 2.5002 8.69971 3.80019 9.59971C3.0002 9.59971 2.3002 9.39971 1.6002 8.99971V9.09971C1.6002 11.4997 3.2002 13.4997 5.30019 13.9997C5.0002 13.9997 4.60019 14.0997 4.10019 14.0997C3.80019 14.0997 3.5002 14.0997 3.2002 13.9997C3.8002 15.9997 5.5002 17.3997 7.50019 17.3997C6.0002 18.6997 4.0002 19.4997 1.8002 19.4997C1.4002 19.4997 1.1002 19.4997 0.700195 19.3997C2.7002 20.7997 5.20019 21.5997 7.80019 21.5997C16.3002 21.6997 21.0002 14.2997 21.0002 7.79971Z" fill="white"/>
</g>
</svg>
